<svg id="svg" version="1.1" xmlns="http://www.w3.org/2000/svg" xmlns:xlink="http://www.w3.org/1999/xlink" width="400" height="400" viewBox="0, 0, 400,400"><g id="svgg"><path id="path0" d="M143.365 182.946 C 143.249 183.248,143.210 184.464,143.277 185.648 L 143.400 187.800 146.000 187.887 C 159.690 188.344,167.182 191.521,170.183 198.143 C 172.933 204.209,172.799 199.910,172.799 282.200 C 172.799 360.503,172.844 358.461,171.009 363.800 C 169.350 368.627,164.741 372.288,158.600 373.657 C 155.960 374.246,147.961 375.183,145.500 375.192 L 143.200 375.200 143.200 377.802 L 143.200 380.403 188.500 380.302 L 233.800 380.200 233.800 377.800 L 233.800 375.400 232.200 375.311 C 212.852 374.230,206.816 370.489,204.593 358.200 C 203.712 353.326,203.715 211.491,204.597 205.620 C 206.568 192.500,212.635 188.393,230.800 187.884 L 233.800 187.800 233.800 185.200 L 233.800 182.600 188.688 182.498 C 150.736 182.413,143.543 182.484,143.365 182.946 M247.867 247.067 C 247.720 247.213,247.600 248.347,247.600 249.587 L 247.600 251.840 250.067 252.350 C 258.018 253.992,262.360 258.346,268.468 270.800 C 271.202 276.376,273.600 281.505,273.600 281.779 C 273.600 281.889,274.140 283.159,274.800 284.600 C 275.460 286.041,276.000 287.307,276.000 287.414 C 276.000 287.521,276.381 288.462,276.847 289.504 C 278.278 292.711,278.706 293.720,279.600 296.000 C 280.074 297.210,280.718 298.785,281.031 299.500 C 281.344 300.215,281.855 301.385,282.166 302.100 C 282.478 302.815,284.203 307.090,286.000 311.600 C 287.797 316.110,289.540 320.430,289.874 321.200 C 290.208 321.970,290.619 322.960,290.787 323.400 C 291.194 324.464,291.786 325.894,292.526 327.600 C 292.860 328.370,294.603 332.690,296.400 337.200 C 298.197 341.710,299.940 346.030,300.274 346.800 C 301.014 348.506,301.606 349.936,302.013 351.000 C 302.181 351.440,302.592 352.430,302.926 353.200 C 303.260 353.970,305.003 358.290,306.800 362.800 C 308.597 367.310,310.340 371.630,310.674 372.400 C 311.008 373.170,311.419 374.160,311.587 374.600 C 312.025 375.747,312.606 377.139,313.506 379.200 C 313.939 380.190,314.533 381.675,314.827 382.500 L 315.361 384.000 318.380 383.994 L 321.400 383.988 344.365 326.494 C 367.961 267.422,368.751 265.482,370.861 261.400 C 373.705 255.899,376.757 253.305,381.517 252.342 L 384.034 251.833 383.917 249.416 L 383.800 247.000 364.000 247.000 L 344.200 247.000 344.083 249.433 L 343.965 251.866 347.483 252.371 C 356.133 253.613,358.400 255.474,358.400 261.336 C 358.400 263.000,358.243 264.776,358.051 265.281 C 357.859 265.787,357.487 266.920,357.225 267.800 C 356.962 268.680,356.579 269.805,356.374 270.300 C 356.168 270.795,355.820 271.650,355.600 272.200 C 355.380 272.750,355.020 273.650,354.800 274.200 C 354.580 274.750,354.220 275.650,354.000 276.200 C 353.780 276.750,353.438 277.605,353.241 278.100 C 353.043 278.595,352.608 279.630,352.274 280.400 C 351.941 281.170,350.017 285.940,348.000 291.000 C 345.983 296.060,344.059 300.830,343.726 301.600 C 343.108 303.025,342.674 304.088,342.054 305.700 C 341.597 306.886,341.019 308.284,340.275 310.000 C 339.941 310.770,337.837 315.990,335.600 321.600 C 333.363 327.210,331.259 332.430,330.925 333.200 C 330.185 334.909,329.593 336.338,329.187 337.400 C 329.019 337.840,328.607 338.830,328.272 339.600 C 327.723 340.861,326.553 343.763,325.544 346.367 C 325.060 347.615,324.611 347.013,323.034 343.000 C 322.428 341.460,321.678 339.615,321.366 338.900 C 321.055 338.185,320.545 337.015,320.233 336.300 C 319.921 335.585,318.916 333.110,318.000 330.800 C 317.084 328.490,316.061 325.970,315.726 325.200 C 315.392 324.430,314.975 323.440,314.800 323.000 C 314.625 322.560,314.208 321.570,313.874 320.800 C 313.540 320.030,312.336 317.060,311.200 314.200 C 310.064 311.340,308.857 308.370,308.519 307.600 C 307.158 304.498,306.800 303.634,305.200 299.600 C 304.284 297.290,303.261 294.770,302.926 294.000 C 302.592 293.230,302.175 292.240,302.000 291.800 C 301.825 291.360,301.408 290.370,301.073 289.600 C 300.738 288.830,299.895 286.760,299.200 285.000 C 298.505 283.240,297.700 281.260,297.412 280.600 C 291.374 266.773,291.727 257.282,298.400 254.081 C 299.552 253.528,305.459 252.015,306.500 252.006 C 307.094 252.001,307.200 251.607,307.200 249.400 L 307.200 246.800 277.667 246.800 C 261.423 246.800,248.013 246.920,247.867 247.067 " stroke="none" fill="#0d6cfb" fill-rule="evenodd"></path><path id="path1" d="M0.000 200.000 L 0.000 400.000 200.000 400.000 L 400.000 400.000 400.000 200.000 L 400.000 0.000 200.000 0.000 L 0.000 0.000 0.000 200.000 M233.800 185.200 L 233.800 187.800 230.800 187.884 C 212.635 188.393,206.568 192.500,204.597 205.620 C 203.715 211.491,203.712 353.326,204.593 358.200 C 206.816 370.489,212.852 374.230,232.200 375.311 L 233.800 375.400 233.800 377.800 L 233.800 380.200 188.500 380.302 L 143.200 380.403 143.200 377.802 L 143.200 375.200 145.500 375.192 C 149.374 375.178,158.639 373.872,161.000 373.007 C 167.766 370.530,170.695 366.882,172.248 359.000 C 173.081 354.769,173.065 209.699,172.231 205.000 C 170.066 192.806,163.417 188.468,146.000 187.887 L 143.400 187.800 143.277 185.648 C 143.210 184.464,143.249 183.248,143.365 182.946 C 143.543 182.484,150.736 182.413,188.688 182.498 L 233.800 182.600 233.800 185.200 M307.200 249.400 C 307.200 251.607,307.094 252.001,306.500 252.006 C 305.459 252.015,299.552 253.528,298.400 254.081 C 291.727 257.282,291.374 266.773,297.412 280.600 C 297.700 281.260,298.505 283.240,299.200 285.000 C 299.895 286.760,300.738 288.830,301.073 289.600 C 301.408 290.370,301.825 291.360,302.000 291.800 C 302.175 292.240,302.592 293.230,302.926 294.000 C 303.261 294.770,304.284 297.290,305.200 299.600 C 306.800 303.634,307.158 304.498,308.519 307.600 C 308.857 308.370,310.064 311.340,311.200 314.200 C 312.336 317.060,313.540 320.030,313.874 320.800 C 314.208 321.570,314.625 322.560,314.800 323.000 C 314.975 323.440,315.392 324.430,315.726 325.200 C 316.061 325.970,317.084 328.490,318.000 330.800 C 318.916 333.110,319.921 335.585,320.233 336.300 C 320.545 337.015,321.055 338.185,321.366 338.900 C 321.678 339.615,322.428 341.460,323.034 343.000 C 324.611 347.013,325.060 347.615,325.544 346.367 C 326.553 343.763,327.723 340.861,328.272 339.600 C 328.607 338.830,329.019 337.840,329.187 337.400 C 329.593 336.338,330.185 334.909,330.925 333.200 C 331.259 332.430,333.363 327.210,335.600 321.600 C 337.837 315.990,339.941 310.770,340.275 310.000 C 341.019 308.284,341.597 306.886,342.054 305.700 C 342.674 304.088,343.108 303.025,343.726 301.600 C 344.059 300.830,345.983 296.060,348.000 291.000 C 350.017 285.940,351.941 281.170,352.274 280.400 C 352.608 279.630,353.043 278.595,353.241 278.100 C 353.438 277.605,353.780 276.750,354.000 276.200 C 354.220 275.650,354.580 274.750,354.800 274.200 C 355.020 273.650,355.380 272.750,355.600 272.200 C 355.820 271.650,356.168 270.795,356.374 270.300 C 356.579 269.805,356.962 268.680,357.225 267.800 C 357.487 266.920,357.859 265.787,358.051 265.281 C 358.243 264.776,358.400 263.000,358.400 261.336 C 358.400 255.474,356.133 253.613,347.483 252.371 L 343.965 251.866 344.083 249.433 L 344.200 247.000 364.000 247.000 L 383.800 247.000 383.917 249.416 L 384.034 251.833 381.517 252.342 C 376.757 253.305,373.705 255.899,370.861 261.400 C 368.751 265.482,367.961 267.422,344.365 326.494 L 321.400 383.988 318.380 383.994 L 315.361 384.000 314.827 382.500 C 314.533 381.675,313.939 380.190,313.506 379.200 C 312.606 377.139,312.025 375.747,311.587 374.600 C 311.419 374.160,311.008 373.170,310.674 372.400 C 310.340 371.630,308.597 367.310,306.800 362.800 C 305.003 358.290,303.260 353.970,302.926 353.200 C 302.592 352.430,302.181 351.440,302.013 351.000 C 301.606 349.936,301.014 348.506,300.274 346.800 C 299.940 346.030,298.197 341.710,296.400 337.200 C 294.603 332.690,292.860 328.370,292.526 327.600 C 291.786 325.894,291.194 324.464,290.787 323.400 C 290.619 322.960,290.208 321.970,289.874 321.200 C 289.540 320.430,287.797 316.110,286.000 311.600 C 284.203 307.090,282.478 302.815,282.166 302.100 C 281.855 301.385,281.344 300.215,281.031 299.500 C 280.718 298.785,280.074 297.210,279.600 296.000 C 278.706 293.720,278.278 292.711,276.847 289.504 C 276.381 288.462,276.000 287.521,276.000 287.414 C 276.000 287.307,275.460 286.041,274.800 284.600 C 274.140 283.159,273.600 281.889,273.600 281.779 C 273.600 281.505,271.202 276.376,268.468 270.800 C 262.360 258.346,258.018 253.992,250.067 252.350 L 247.600 251.840 247.600 249.587 C 247.600 248.347,247.720 247.213,247.867 247.067 C 248.013 246.920,261.423 246.800,277.667 246.800 L 307.200 246.800 307.200 249.400 " stroke="none" fill="#e3e3e4" fill-rule="evenodd"></path></g></svg>