<svg xmlns="http://www.w3.org/2000/svg" width="400" height="400"><g fill-rule="evenodd"><path fill="#0d6dfc" d="M143.365 182.948c-.116.301-.155 1.516-.088 2.7l.123 2.152 4.2.256c14.317.873 20.108 3.684 23.164 11.244 2.083 5.156 2.035 3.18 2.035 82.9 0 78.355.045 76.303-1.8 81.6-1.695 4.867-5.872 8.239-12.199 9.848-2.119.54-10.696 1.535-13.3 1.544l-2.3.008V380.403l45.3-.101 45.3-.102v-4.8l-1.6-.092c-19.512-1.123-25.372-4.754-27.607-17.108-.881-4.874-.878-146.709.004-152.58 1.94-12.918 7.042-16.647 24.003-17.545l5.2-.275.122-2.363c.083-1.619-.042-2.467-.4-2.694-.984-.624-89.917-.422-90.157.205m104.502 64.119c-.147.146-.267 1.28-.267 2.52v2.253l2.5.516c6.114 1.263 10.78 4.893 14.71 11.444 1.875 3.126 8.79 17.286 8.79 18 0 .099.54 1.359 1.2 2.8.66 1.441 1.2 2.7 1.2 2.798 0 .098.436 1.132.969 2.297a104.024 104.024 0 0 1 1.831 4.312 126.502 126.502 0 0 0 1.431 3.493c.313.715.824 1.885 1.135 2.6.312.715 2.037 4.99 3.834 9.5 1.797 4.51 3.54 8.83 3.874 9.6.74 1.706 1.332 3.136 1.739 4.2.168.44.579 1.43.913 2.2.334.77 2.077 5.09 3.874 9.6 1.797 4.51 3.54 8.83 3.874 9.6.334.77.769 1.805.967 2.3l.718 1.8c.198.495.633 1.53.967 2.3.334.77 2.077 5.09 3.874 9.6 1.797 4.51 3.54 8.83 3.874 9.6.334.77.769 1.805.967 2.3l.719 1.8c.198.495.712 1.71 1.142 2.7.429.99 1.211 2.925 1.737 4.3l.957 2.5 3.002-.006 3.002-.006 19.735-49.494c22.633-56.761 20.155-50.575 21.225-52.99.462-1.042.84-2.043.84-2.225 0-.181.36-1.074.8-1.985.44-.91.8-1.846.8-2.08 0-.234.165-.737.367-1.119.545-1.031 2.033-4.456 2.033-4.681 0-1.065 4.6-10.03 6.255-12.189 2.182-2.848 6.606-5.225 9.726-5.225.798 0 .849-.174.738-2.5l-.119-2.5h-39.6l-.117 2.433-.118 2.433 3.518.505c8.628 1.239 10.917 3.109 10.917 8.917 0 2.776-.945 6.919-2.009 8.807-.215.382-.391.879-.391 1.104 0 .225-.378 1.263-.84 2.305a113.961 113.961 0 0 0-1.2 2.796l-1.519 3.8c-.198.495-.633 1.53-.967 2.3-.333.77-2.257 5.54-4.274 10.6s-3.941 9.83-4.274 10.6c-.334.77-.745 1.76-.913 2.2a178.142 178.142 0 0 1-1.559 3.9c-.25.605-.616 1.505-.813 2-.198.495-.633 1.53-.967 2.3-.333.77-2.257 5.54-4.274 10.6s-3.941 9.83-4.274 10.6a94.972 94.972 0 0 0-1.672 4.1 106.401 106.401 0 0 1-1.787 4.306 65.528 65.528 0 0 0-1.04 2.524c-.542 1.424-.933 1.164-1.826-1.217a97.64 97.64 0 0 0-1.499-3.713c-.43-.99-.925-2.16-1.101-2.6-.176-.44-.593-1.43-.927-2.2-.335-.77-1.358-3.29-2.274-5.6-.916-2.31-1.939-4.83-2.274-5.6-.334-.77-.751-1.76-.926-2.2-.175-.44-.592-1.43-.926-2.2-.335-.77-1.358-3.29-2.274-5.6-.916-2.31-1.939-4.83-2.274-5.6-.334-.77-.751-1.76-.926-2.2-.175-.44-.592-1.43-.926-2.2-.335-.77-1.358-3.29-2.274-5.6-.916-2.31-1.939-4.83-2.274-5.6-.334-.77-.751-1.76-.926-2.2-.175-.44-.592-1.43-.927-2.2-.335-.77-1.178-2.84-1.873-4.6-.695-1.76-1.538-3.83-1.873-4.6-.335-.77-.763-1.76-.951-2.2-4.756-11.111-4.241-20.618 1.285-23.722 1.321-.742 7.563-2.478 8.91-2.478.508 0 .629-.502.629-2.6v-2.6h-29.533c-16.244 0-29.654.12-29.8.267"/><path fill="#fcfcfc" d="M0 200v200h400V0H0v200m233.522-17.257c.358.227.483 1.075.4 2.694l-.122 2.363-5.2.275c-16.961.898-22.063 4.627-24.003 17.545-.882 5.871-.885 147.706-.004 152.58 2.235 12.354 8.095 15.985 27.607 17.108l1.6.092v4.8l-45.3.102-45.3.101V375.2l2.3-.008c14.014-.048 22.937-4.034 25.499-11.392 1.845-5.297 1.8-3.245 1.8-81.6 0-75.432-.029-77.089-1.404-81.2-3.002-8.975-8.594-12.017-23.795-12.944l-4.2-.256-.123-2.152c-.067-1.184-.028-2.399.088-2.7.24-.627 89.173-.829 90.157-.205M307.2 249.4c0 2.098-.121 2.6-.629 2.6-1.347 0-7.589 1.736-8.91 2.478-5.526 3.104-6.041 12.611-1.285 23.722.188.44.616 1.43.951 2.2.335.77 1.178 2.84 1.873 4.6.695 1.76 1.538 3.83 1.873 4.6.335.77.752 1.76.927 2.2.175.44.592 1.43.926 2.2.335.77 1.358 3.29 2.274 5.6.916 2.31 1.939 4.83 2.274 5.6.334.77.751 1.76.926 2.2.175.44.592 1.43.926 2.2.335.77 1.358 3.29 2.274 5.6.916 2.31 1.939 4.83 2.274 5.6.334.77.751 1.76.926 2.2.175.44.592 1.43.926 2.2.335.77 1.358 3.29 2.274 5.6.916 2.31 1.939 4.83 2.274 5.6.334.77.751 1.76.927 2.2.176.44.671 1.61 1.101 2.6a97.64 97.64 0 0 1 1.499 3.713c.893 2.381 1.284 2.641 1.826 1.217.233-.615.701-1.751 1.04-2.524a106.401 106.401 0 0 0 1.787-4.306 94.972 94.972 0 0 1 1.672-4.1c.333-.77 2.257-5.54 4.274-10.6s3.941-9.83 4.274-10.6c.334-.77.769-1.805.967-2.3.197-.495.563-1.395.813-2a178.142 178.142 0 0 0 1.559-3.9c.168-.44.579-1.43.913-2.2.333-.77 2.257-5.54 4.274-10.6s3.941-9.83 4.274-10.6c.334-.77.769-1.805.967-2.3l1.519-3.8c.198-.495.738-1.753 1.2-2.796.462-1.042.84-2.08.84-2.305 0-.225.176-.722.391-1.104 1.064-1.888 2.009-6.031 2.009-8.807 0-5.808-2.289-7.678-10.917-8.917l-3.518-.505.118-2.433.117-2.433h39.6l.119 2.5c.111 2.326.06 2.5-.738 2.5-3.12 0-7.544 2.377-9.726 5.225-1.655 2.159-6.255 11.124-6.255 12.189 0 .225-1.488 3.65-2.033 4.681-.202.382-.367.885-.367 1.119 0 .234-.36 1.17-.8 2.08-.44.911-.8 1.804-.8 1.985 0 .182-.378 1.183-.84 2.225-1.07 2.415 1.408-3.771-21.225 52.99L321.4 383.988l-3.002.006-3.002.006-.957-2.5a131.595 131.595 0 0 0-1.737-4.3c-.43-.99-.944-2.205-1.142-2.7l-.719-1.8c-.198-.495-.633-1.53-.967-2.3-.334-.77-2.077-5.09-3.874-9.6-1.797-4.51-3.54-8.83-3.874-9.6-.334-.77-.769-1.805-.967-2.3l-.718-1.8c-.198-.495-.633-1.53-.967-2.3-.334-.77-2.077-5.09-3.874-9.6-1.797-4.51-3.54-8.83-3.874-9.6-.334-.77-.745-1.76-.913-2.2a109.414 109.414 0 0 0-1.739-4.2c-.334-.77-2.077-5.09-3.874-9.6-1.797-4.51-3.522-8.785-3.834-9.5-.311-.715-.822-1.885-1.135-2.6-.313-.715-.957-2.287-1.431-3.493a104.024 104.024 0 0 0-1.831-4.312c-.533-1.165-.969-2.199-.969-2.297 0-.098-.54-1.357-1.2-2.798-.66-1.441-1.2-2.701-1.2-2.8 0-.714-6.915-14.874-8.79-18-3.93-6.551-8.596-10.181-14.71-11.444l-2.5-.516v-2.253c0-1.24.12-2.374.267-2.52.146-.147 13.556-.267 29.8-.267H307.2v2.6"/></g></svg>