<svg id="svg" version="1.1" xmlns="http://www.w3.org/2000/svg" xmlns:xlink="http://www.w3.org/1999/xlink" width="400" height="400" viewBox="0, 0, 400,400"><g id="svgg"><path id="path0" d="M143.365 182.948 C 143.249 183.249,143.210 184.464,143.277 185.648 L 143.400 187.800 147.600 188.056 C 161.917 188.929,167.708 191.740,170.764 199.300 C 172.847 204.456,172.799 202.480,172.799 282.200 C 172.799 360.555,172.844 358.503,170.999 363.800 C 169.304 368.667,165.127 372.039,158.800 373.648 C 156.681 374.188,148.104 375.183,145.500 375.192 L 143.200 375.200 143.200 377.802 L 143.200 380.403 188.500 380.302 L 233.800 380.200 233.800 377.800 L 233.800 375.400 232.200 375.308 C 212.688 374.185,206.828 370.554,204.593 358.200 C 203.712 353.326,203.715 211.491,204.597 205.620 C 206.537 192.702,211.639 188.973,228.600 188.075 L 233.800 187.800 233.922 185.437 C 234.005 183.818,233.880 182.970,233.522 182.743 C 232.538 182.119,143.605 182.321,143.365 182.948 M247.867 247.067 C 247.720 247.213,247.600 248.347,247.600 249.587 L 247.600 251.840 250.100 252.356 C 256.214 253.619,260.880 257.249,264.810 263.800 C 266.685 266.926,273.600 281.086,273.600 281.800 C 273.600 281.899,274.140 283.159,274.800 284.600 C 275.460 286.041,276.000 287.300,276.000 287.398 C 276.000 287.496,276.436 288.530,276.969 289.695 C 277.502 290.860,278.326 292.801,278.800 294.007 C 279.274 295.213,279.918 296.785,280.231 297.500 C 280.544 298.215,281.055 299.385,281.366 300.100 C 281.678 300.815,283.403 305.090,285.200 309.600 C 286.997 314.110,288.740 318.430,289.074 319.200 C 289.814 320.906,290.406 322.336,290.813 323.400 C 290.981 323.840,291.392 324.830,291.726 325.600 C 292.060 326.370,293.803 330.690,295.600 335.200 C 297.397 339.710,299.140 344.030,299.474 344.800 C 299.808 345.570,300.243 346.605,300.441 347.100 C 300.638 347.595,300.962 348.405,301.159 348.900 C 301.357 349.395,301.792 350.430,302.126 351.200 C 302.460 351.970,304.203 356.290,306.000 360.800 C 307.797 365.310,309.540 369.630,309.874 370.400 C 310.208 371.170,310.643 372.205,310.841 372.700 C 311.038 373.195,311.362 374.005,311.560 374.500 C 311.758 374.995,312.272 376.210,312.702 377.200 C 313.131 378.190,313.913 380.125,314.439 381.500 L 315.396 384.000 318.398 383.994 L 321.400 383.988 341.135 334.494 C 363.768 277.733,361.290 283.919,362.360 281.504 C 362.822 280.462,363.200 279.461,363.200 279.279 C 363.200 279.098,363.560 278.205,364.000 277.294 C 364.440 276.384,364.800 275.448,364.800 275.214 C 364.800 274.980,364.965 274.477,365.167 274.095 C 365.712 273.064,367.200 269.639,367.200 269.414 C 367.200 268.349,371.800 259.384,373.455 257.225 C 375.637 254.377,380.061 252.000,383.181 252.000 C 383.979 252.000,384.030 251.826,383.919 249.500 L 383.800 247.000 364.000 247.000 L 344.200 247.000 344.083 249.433 L 343.965 251.866 347.483 252.371 C 356.111 253.610,358.400 255.480,358.400 261.288 C 358.400 264.064,357.455 268.207,356.391 270.095 C 356.176 270.477,356.000 270.974,356.000 271.199 C 356.000 271.424,355.622 272.462,355.160 273.504 C 354.698 274.547,354.158 275.805,353.960 276.300 C 353.203 278.192,352.788 279.231,352.441 280.100 C 352.243 280.595,351.808 281.630,351.474 282.400 C 351.141 283.170,349.217 287.940,347.200 293.000 C 345.183 298.060,343.259 302.830,342.926 303.600 C 342.592 304.370,342.181 305.360,342.013 305.800 C 341.629 306.805,341.040 308.278,340.454 309.700 C 340.204 310.305,339.838 311.205,339.641 311.700 C 339.443 312.195,339.008 313.230,338.674 314.000 C 338.341 314.770,336.417 319.540,334.400 324.600 C 332.383 329.660,330.459 334.430,330.126 335.200 C 329.508 336.625,329.074 337.688,328.454 339.300 C 327.976 340.540,327.393 341.945,326.667 343.606 C 326.328 344.379,325.860 345.515,325.627 346.130 C 325.085 347.554,324.694 347.294,323.801 344.913 C 323.406 343.861,322.731 342.190,322.302 341.200 C 321.872 340.210,321.377 339.040,321.201 338.600 C 321.025 338.160,320.608 337.170,320.274 336.400 C 319.939 335.630,318.916 333.110,318.000 330.800 C 317.084 328.490,316.061 325.970,315.726 325.200 C 315.392 324.430,314.975 323.440,314.800 323.000 C 314.625 322.560,314.208 321.570,313.874 320.800 C 313.539 320.030,312.516 317.510,311.600 315.200 C 310.684 312.890,309.661 310.370,309.326 309.600 C 308.992 308.830,308.575 307.840,308.400 307.400 C 308.225 306.960,307.808 305.970,307.474 305.200 C 307.139 304.430,306.116 301.910,305.200 299.600 C 304.284 297.290,303.261 294.770,302.926 294.000 C 302.592 293.230,302.175 292.240,302.000 291.800 C 301.825 291.360,301.408 290.370,301.073 289.600 C 300.738 288.830,299.895 286.760,299.200 285.000 C 298.505 283.240,297.662 281.170,297.327 280.400 C 296.992 279.630,296.564 278.640,296.376 278.200 C 291.620 267.089,292.135 257.582,297.661 254.478 C 298.982 253.736,305.224 252.000,306.571 252.000 C 307.079 252.000,307.200 251.498,307.200 249.400 L 307.200 246.800 277.667 246.800 C 261.423 246.800,248.013 246.920,247.867 247.067 " stroke="none" fill="#0d6dfc" fill-rule="evenodd"></path><path id="path1" d="M0.000 200.000 L 0.000 400.000 200.000 400.000 L 400.000 400.000 400.000 200.000 L 400.000 0.000 200.000 0.000 L 0.000 0.000 0.000 200.000 M233.522 182.743 C 233.880 182.970,234.005 183.818,233.922 185.437 L 233.800 187.800 228.600 188.075 C 211.639 188.973,206.537 192.702,204.597 205.620 C 203.715 211.491,203.712 353.326,204.593 358.200 C 206.828 370.554,212.688 374.185,232.200 375.308 L 233.800 375.400 233.800 377.800 L 233.800 380.200 188.500 380.302 L 143.200 380.403 143.200 377.802 L 143.200 375.200 145.500 375.192 C 159.514 375.144,168.437 371.158,170.999 363.800 C 172.844 358.503,172.799 360.555,172.799 282.200 C 172.799 206.768,172.770 205.111,171.395 201.000 C 168.393 192.025,162.801 188.983,147.600 188.056 L 143.400 187.800 143.277 185.648 C 143.210 184.464,143.249 183.249,143.365 182.948 C 143.605 182.321,232.538 182.119,233.522 182.743 M307.200 249.400 C 307.200 251.498,307.079 252.000,306.571 252.000 C 305.224 252.000,298.982 253.736,297.661 254.478 C 292.135 257.582,291.620 267.089,296.376 278.200 C 296.564 278.640,296.992 279.630,297.327 280.400 C 297.662 281.170,298.505 283.240,299.200 285.000 C 299.895 286.760,300.738 288.830,301.073 289.600 C 301.408 290.370,301.825 291.360,302.000 291.800 C 302.175 292.240,302.592 293.230,302.926 294.000 C 303.261 294.770,304.284 297.290,305.200 299.600 C 306.116 301.910,307.139 304.430,307.474 305.200 C 307.808 305.970,308.225 306.960,308.400 307.400 C 308.575 307.840,308.992 308.830,309.326 309.600 C 309.661 310.370,310.684 312.890,311.600 315.200 C 312.516 317.510,313.539 320.030,313.874 320.800 C 314.208 321.570,314.625 322.560,314.800 323.000 C 314.975 323.440,315.392 324.430,315.726 325.200 C 316.061 325.970,317.084 328.490,318.000 330.800 C 318.916 333.110,319.939 335.630,320.274 336.400 C 320.608 337.170,321.025 338.160,321.201 338.600 C 321.377 339.040,321.872 340.210,322.302 341.200 C 322.731 342.190,323.406 343.861,323.801 344.913 C 324.694 347.294,325.085 347.554,325.627 346.130 C 325.860 345.515,326.328 344.379,326.667 343.606 C 327.393 341.945,327.976 340.540,328.454 339.300 C 329.074 337.688,329.508 336.625,330.126 335.200 C 330.459 334.430,332.383 329.660,334.400 324.600 C 336.417 319.540,338.341 314.770,338.674 314.000 C 339.008 313.230,339.443 312.195,339.641 311.700 C 339.838 311.205,340.204 310.305,340.454 309.700 C 341.040 308.278,341.629 306.805,342.013 305.800 C 342.181 305.360,342.592 304.370,342.926 303.600 C 343.259 302.830,345.183 298.060,347.200 293.000 C 349.217 287.940,351.141 283.170,351.474 282.400 C 351.808 281.630,352.243 280.595,352.441 280.100 C 352.788 279.231,353.203 278.192,353.960 276.300 C 354.158 275.805,354.698 274.547,355.160 273.504 C 355.622 272.462,356.000 271.424,356.000 271.199 C 356.000 270.974,356.176 270.477,356.391 270.095 C 357.455 268.207,358.400 264.064,358.400 261.288 C 358.400 255.480,356.111 253.610,347.483 252.371 L 343.965 251.866 344.083 249.433 L 344.200 247.000 364.000 247.000 L 383.800 247.000 383.919 249.500 C 384.030 251.826,383.979 252.000,383.181 252.000 C 380.061 252.000,375.637 254.377,373.455 257.225 C 371.800 259.384,367.200 268.349,367.200 269.414 C 367.200 269.639,365.712 273.064,365.167 274.095 C 364.965 274.477,364.800 274.980,364.800 275.214 C 364.800 275.448,364.440 276.384,364.000 277.294 C 363.560 278.205,363.200 279.098,363.200 279.279 C 363.200 279.461,362.822 280.462,362.360 281.504 C 361.290 283.919,363.768 277.733,341.135 334.494 L 321.400 383.988 318.398 383.994 L 315.396 384.000 314.439 381.500 C 313.913 380.125,313.131 378.190,312.702 377.200 C 312.272 376.210,311.758 374.995,311.560 374.500 C 311.362 374.005,311.038 373.195,310.841 372.700 C 310.643 372.205,310.208 371.170,309.874 370.400 C 309.540 369.630,307.797 365.310,306.000 360.800 C 304.203 356.290,302.460 351.970,302.126 351.200 C 301.792 350.430,301.357 349.395,301.159 348.900 C 300.962 348.405,300.638 347.595,300.441 347.100 C 300.243 346.605,299.808 345.570,299.474 344.800 C 299.140 344.030,297.397 339.710,295.600 335.200 C 293.803 330.690,292.060 326.370,291.726 325.600 C 291.392 324.830,290.981 323.840,290.813 323.400 C 290.406 322.336,289.814 320.906,289.074 319.200 C 288.740 318.430,286.997 314.110,285.200 309.600 C 283.403 305.090,281.678 300.815,281.366 300.100 C 281.055 299.385,280.544 298.215,280.231 297.500 C 279.918 296.785,279.274 295.213,278.800 294.007 C 278.326 292.801,277.502 290.860,276.969 289.695 C 276.436 288.530,276.000 287.496,276.000 287.398 C 276.000 287.300,275.460 286.041,274.800 284.600 C 274.140 283.159,273.600 281.899,273.600 281.800 C 273.600 281.086,266.685 266.926,264.810 263.800 C 260.880 257.249,256.214 253.619,250.100 252.356 L 247.600 251.840 247.600 249.587 C 247.600 248.347,247.720 247.213,247.867 247.067 C 248.013 246.920,261.423 246.800,277.667 246.800 L 307.200 246.800 307.200 249.400 " stroke="none" fill="#fcfcfc" fill-rule="evenodd"></path></g></svg>